<svg xmlns="http://www.w3.org/2000/svg" viewBox="0 0 681.5 794"><style>.st0{display:none}.st1{display:inline}.st2{fill:#fbb040}.st3{fill:#fff8e1}.st4{display:inline;opacity:.1}.st5{fill:#9e9e9e}.st6,.st7{display:inline}.st6{opacity:.35}.st7{fill:#fff8e1}</style><g id="Layer_4" class="st0"><path class="st1" d="M-.6.1h681.5v794H-.6z"/></g><g id="beer"><path class="st2" d="M410.5 773.4H156.1c-39.6 0-72-32.4-72-72V147c0-6.6 5.4-12 12-12h374.4c6.6 0 12 5.4 12 12v554.5c0 39.5-32.4 71.9-72 71.9z"/><circle class="st3" cx="93.4" cy="140.9" r="9.3"/><circle class="st3" cx="93.4" cy="150.2" r="9.3"/><circle class="st3" cx="102.7" cy="140.9" r="9.3"/><circle class="st3" cx="102.7" cy="150.2" r="9.3"/><circle class="st3" cx="112" cy="140.9" r="9.3"/><circle class="st3" cx="112" cy="150.2" r="9.3"/><circle class="st3" cx="121.3" cy="140.9" r="9.3"/><circle class="st3" cx="121.3" cy="150.2" r="9.3"/><circle class="st3" cx="129.6" cy="140.9" r="9.3"/><circle class="st3" cx="129.6" cy="150.2" r="9.3"/><circle class="st3" cx="138.9" cy="140.9" r="9.3"/><circle class="st3" cx="138.9" cy="150.2" r="9.3"/><circle class="st3" cx="148.2" cy="140.9" r="9.3"/><circle class="st3" cx="148.2" cy="150.2" r="9.3"/><circle class="st3" cx="157.5" cy="140.9" r="9.3"/><circle class="st3" cx="157.5" cy="150.2" r="9.3"/><g><circle class="st3" cx="166.8" cy="140.6" r="9.3"/><circle class="st3" cx="166.8" cy="149.9" r="9.3"/><circle class="st3" cx="176.1" cy="140.6" r="9.3"/><circle class="st3" cx="176.1" cy="149.9" r="9.3"/><g><circle class="st3" cx="185.4" cy="140.6" r="9.3"/><circle class="st3" cx="185.4" cy="149.9" r="9.3"/><circle class="st3" cx="194.7" cy="140.6" r="9.3"/><circle class="st3" cx="194.7" cy="149.9" r="9.3"/></g><g><circle class="st3" cx="203" cy="140.6" r="9.3"/><circle class="st3" cx="203" cy="149.9" r="9.3"/><circle class="st3" cx="212.3" cy="140.6" r="9.3"/><circle class="st3" cx="212.3" cy="149.9" r="9.3"/></g><g><circle class="st3" cx="221.6" cy="140.6" r="9.3"/><circle class="st3" cx="221.6" cy="149.9" r="9.3"/><circle class="st3" cx="230.9" cy="140.6" r="9.3"/><circle class="st3" cx="230.9" cy="149.9" r="9.3"/></g></g><g><circle class="st3" cx="240.2" cy="140.4" r="9.3"/><circle class="st3" cx="240.2" cy="149.7" r="9.3"/><circle class="st3" cx="249.5" cy="140.4" r="9.3"/><circle class="st3" cx="249.5" cy="149.7" r="9.3"/><g><circle class="st3" cx="258.8" cy="140.4" r="9.3"/><circle class="st3" cx="258.8" cy="149.7" r="9.3"/><circle class="st3" cx="268.1" cy="140.4" r="9.3"/><circle class="st3" cx="268.1" cy="149.7" r="9.3"/></g><g><circle class="st3" cx="276.4" cy="140.4" r="9.3"/><circle class="st3" cx="276.4" cy="149.7" r="9.3"/><circle class="st3" cx="285.7" cy="140.4" r="9.3"/><circle class="st3" cx="285.7" cy="149.7" r="9.3"/></g><g><circle class="st3" cx="295" cy="140.4" r="9.3"/><circle class="st3" cx="295" cy="149.7" r="9.3"/><circle class="st3" cx="304.3" cy="140.4" r="9.3"/><circle class="st3" cx="304.3" cy="149.7" r="9.3"/></g></g><g><circle class="st3" cx="313.6" cy="140.1" r="9.3"/><circle class="st3" cx="313.6" cy="149.3" r="9.3"/><circle class="st3" cx="322.9" cy="140.1" r="9.3"/><circle class="st3" cx="322.9" cy="149.3" r="9.3"/><g><circle class="st3" cx="332.2" cy="140.1" r="9.3"/><circle class="st3" cx="332.2" cy="149.3" r="9.3"/><circle class="st3" cx="341.5" cy="140.1" r="9.3"/><circle class="st3" cx="341.5" cy="149.3" r="9.3"/></g><g><circle class="st3" cx="349.8" cy="140.1" r="9.3"/><circle class="st3" cx="349.8" cy="149.3" r="9.3"/><circle class="st3" cx="359.1" cy="140.1" r="9.3"/><circle class="st3" cx="359.1" cy="149.3" r="9.3"/></g><g><circle class="st3" cx="368.4" cy="140.1" r="9.3"/><circle class="st3" cx="368.4" cy="149.3" r="9.3"/><circle class="st3" cx="377.7" cy="140.1" r="9.3"/><circle class="st3" cx="377.7" cy="149.3" r="9.3"/></g></g><g><circle class="st3" cx="386.8" cy="140.1" r="9.3"/><circle class="st3" cx="386.8" cy="149.3" r="9.3"/><circle class="st3" cx="396.1" cy="140.1" r="9.3"/><circle class="st3" cx="396.1" cy="149.3" r="9.3"/></g><g><circle class="st3" cx="405.4" cy="140.1" r="9.3"/><circle class="st3" cx="405.4" cy="149.3" r="9.3"/><circle class="st3" cx="414.7" cy="140.1" r="9.3"/><circle class="st3" cx="414.7" cy="149.3" r="9.3"/></g><g><circle class="st3" cx="423.1" cy="140.1" r="9.3"/><circle class="st3" cx="423.1" cy="149.3" r="9.3"/><circle class="st3" cx="432.4" cy="140.1" r="9.3"/><circle class="st3" cx="432.4" cy="149.3" r="9.3"/></g><circle class="st3" cx="441.6" cy="140.1" r="9.3"/><circle class="st3" cx="441.6" cy="149.3" r="9.3"/><circle class="st3" cx="450.9" cy="140.1" r="9.3"/><circle class="st3" cx="450.9" cy="149.3" r="9.3"/><circle class="st3" cx="462.1" cy="140.1" r="9.3"/><circle class="st3" cx="473.2" cy="140.1" r="9.3"/><circle class="st3" cx="462.8" cy="149.3" r="9.3"/><circle class="st3" cx="473.2" cy="149.3" r="9.3"/></g><g id="glass" class="st0"><g class="st4"><path class="st5" d="M418.5 785.8h-275c-39.6 0-72-32.4-72-72V147c0-6.6 5.4-12 12-12h395c6.6 0 12 5.4 12 12v566.8c0 39.6-32.4 72-72 72z"/><path class="st5" d="M624.8 278.6H426.5c-29.7 0-54 24.3-54 54v25.3c0-6.6 5.4-12 12-12h215.7c6.6 0 12 5.4 12 12V639c0 6.6-5.4 12-12 12H384.5c-6.6 0-12-5.4-12-12v25.3c0 29.7 24.3 54 54 54h198.3c29.7 0 54-24.3 54-54V332.6c0-29.7-24.3-54-54-54z"/></g><g class="st1"><path class="st5" d="M627.5 278.6h-145v67.3h120.3c6.6 0 12 5.4 12 12V639c0 6.6-5.4 12-12 12H482.5v50.4c0 5.8-.7 11.5-2 16.9h147c29.7 0 54-24.3 54-54V332.6c0-29.7-24.3-54-54-54z"/><path class="st5" d="M481.2 135h-10.6c6.6 0 12 5.4 12 12v554.5c0 39.6-32.4 72-72 72H156.1c-39.6 0-72-32.4-72-72V147c0-6.6 5.4-12 12-12h-10c-6.6 0-12 5.4-12 12v566.8c0 39.6 32.4 72 72 72h275c39.6 0 72-32.4 72-72V147c.1-6.6-5.3-12-11.9-12z"/></g><g class="st6"><path class="st5" d="M157.1 690.8c-22.7 0-41.3-18.6-41.3-41.3V251.1c0-22.7 18.6-41.3 41.3-41.3 22.7 0 41.3 18.6 41.3 41.3v398.4c0 22.7-18.6 41.3-41.3 41.3zM283.7 718.3c-22.7 0-41.3-18.6-41.3-41.3V278.6c0-22.7 18.6-41.3 41.3-41.3 22.7 0 41.3 18.6 41.3 41.3V677c-.1 22.7-18.6 41.3-41.3 41.3zM405.7 690.8c-22.7 0-41.3-18.6-41.3-41.3V251.1c0-22.7 18.6-41.3 41.3-41.3 22.7 0 41.3 18.6 41.3 41.3v398.4c0 22.7-18.6 41.3-41.3 41.3z"/></g><g class="st1"><path class="st5" d="M508.7 384.7h-17.4v-12.3h51.2v20.4c0 3.9-.7 7.4-2.2 10.4s-3.5 5.3-6.2 7c-2.7 1.7-5.7 2.5-9.1 2.5-5 0-9-1.8-12-5.4-3-3.6-4.5-8.5-4.5-14.7v-7.9zm9.6 0v8.1c0 2.4.6 4.2 1.8 5.5s2.9 1.9 5.1 1.9c2.4 0 4.3-.6 5.7-1.9 1.4-1.3 2.2-3 2.2-5.3v-8.2h-14.8zM500.9 442v-16.9l-9.6-3v-13.2l51.2 18.8v11.6l-51.2 18.9V445l9.6-3zm9.6-14v11l17.8-5.5-17.8-5.5zM520.3 475.4l22.2 9.4v13.3l-32.8-16.5h-18.4v-12.5h18.4l32.8-16.5V466l-22.2 9.4zM508.7 514.2h-17.4v-12.3h51.2v20.4c0 3.9-.7 7.4-2.2 10.4s-3.5 5.3-6.2 7c-2.7 1.7-5.7 2.5-9.1 2.5-5 0-9-1.8-12-5.4-3-3.6-4.5-8.5-4.5-14.7v-7.9zm9.6 0v8.1c0 2.4.6 4.2 1.8 5.5s2.9 1.9 5.1 1.9c2.4 0 4.3-.6 5.7-1.9 1.4-1.3 2.2-3 2.2-5.3v-8.2h-14.8zM500.9 571.6v-16.9l-9.6-3v-13.2l51.2 18.8v11.6l-51.2 18.9v-13.3l9.6-2.9zm9.6-14v11l17.8-5.5-17.8-5.5zM500.9 603.9v21.5h-9.5v-33.8h51.2v12.3h-41.7z"/></g></g><g id="foam" class="st0"><circle class="st7" cx="174.9" cy="174.7" r="67.5"/><circle class="st7" cx="288.9" cy="119.1" r="67.5"/><g class="st1"><circle class="st3" cx="130.1" cy="132.5" r="87.3"/><circle class="st3" cx="231.1" cy="99.3" r="87.3"/><circle class="st3" cx="346.1" cy="77.4" r="67.5"/><circle class="st3" cx="364.4" cy="152.3" r="67.5"/><circle class="st3" cx="439.8" cy="107.2" r="87.3"/><circle class="st3" cx="273.8" cy="144.9" r="67.5"/><circle class="st3" cx="76.3" cy="219.8" r="67.5"/><circle class="st3" cx="164.8" cy="295" r="75.2"/><circle class="st3" cx="143.8" cy="227.5" r="67.5"/><circle class="st3" cx="96" cy="305.5" r="53.2"/><circle class="st3" cx="211.3" cy="219.8" r="53.2"/></g></g></svg>