<svg xmlns="http://www.w3.org/2000/svg" width="1190.6" height="841.9" viewBox="0 0 1190.6 841.9"><style>.st0{display:none}.st1{display:inline}.st2{fill:#f78f1e}.st3{fill:#ffcb28}</style><g id="Layer_1" class="st0"><g class="st1"><path class="st2" d="M1131 482.8s1.8-1.3 4.5-3.4c2.7-2 6.4-4.6 10-7 3.7-2.5 7.3-4.9 10.1-6.6 2.8-1.7 4.6-2.9 4.6-2.9 9.9-6 19.9-11.4 30.2-16-5.4 1.7-10.9 3.1-16.4 4.2-2.8.6-5.6 1-8.4 1.4-2.8.4-5.7.8-8.5 1.1 0 0-2.1.2-5.4.5-3.2.3-7.6.5-11.9.6-4.4.1-8.8.1-12.1 0-3.3-.1-5.5-.2-5.5-.2l3.7 12.2s-1.5.4-4.1 1.2c-1.3.4-2.9.8-4.7 1.3-4.5 1.2-9.2 2.5-14 3.8-7.3 2-14.9 3.9-22.6 5.9-15.5 3.9-31.9 7.8-49.1 11.4-34.3 7.3-71.8 13.9-111.7 18.2-19.9 2.2-40.5 3.6-61.5 4.3-21 .7-42.5.2-64.1-1.5-21.7-1.8-43.6-4.9-65.2-10.3-10.8-2.7-21.5-5.8-32-9.8-1.3-.5-2.6-.9-3.9-1.5l-3.9-1.6-3.9-1.6-1.9-.8-1.9-.9c-2.6-1.2-5.1-2.4-7.7-3.5l-7.5-3.9c-9.9-5.3-19.5-11.4-28.5-18.2-9-6.9-17.3-14.6-25-23l-5.6-6.4c-1.8-2.2-3.6-4.5-5.4-6.8l-2.7-3.4-2.6-3.5c-1.7-2.3-3.4-4.6-5.1-7-6.6-9.5-12.8-19.3-18.6-29.3-5.7-10.1-10.9-20.5-15.7-31-4.9-10.5-9.2-21.3-13.5-32.2-8.4-21.7-15.9-43.7-24.1-65.4-4.1-10.8-8.4-21.6-12.9-32.2-4.5-10.6-9.4-21-14.6-31.2-5.2-10.2-10.9-20-16.8-29.6-1.5-2.4-3.1-4.7-4.6-7.1l-2.3-3.5c-.8-1.2-1.6-2.3-2.4-3.5l-4.8-6.9c-1.6-2.3-3.3-4.5-5-6.7-3.3-4.5-6.8-8.8-10.2-13.1-1.7-2.2-3.5-4.2-5.3-6.3-1.8-2.1-3.6-4.2-5.3-6.2-7.3-8.3-15.4-15.7-23.9-22.3-17.2-13.1-36.1-22.6-55.2-29.8-19.1-7.1-38.4-11.9-57.2-15.2-18.8-3.3-37.2-5.1-54.8-6.1-35.3-1.8-67.7-.2-96.2 2.7-28.5 2.9-53.2 7.1-73.3 11.4-20.1 4.3-35.7 8.9-46 12.8-5.2 2-9 3.8-11.4 5.5-1.2.8-2.1 1.6-2.5 2.4-.4.8-.3 1.2-.3 1.2l1.1.2s-.1-.4.2-.9c.3-.5 1-1.2 2.1-2 2.3-1.5 6.1-3.3 11.2-5.2 10.3-3.8 25.9-8 45.9-12.1 20.1-4 44.7-7.9 73.2-10.4 28.4-2.5 60.7-3.7 95.7-1.5 17.5 1.1 35.7 3.2 54.2 6.6 18.5 3.5 37.5 8.4 56.1 15.6 18.6 7.2 37 16.7 53.4 29.5 8.2 6.4 15.9 13.6 22.8 21.7 1.7 2.1 3.4 4.1 5.2 6.2 1.7 2.1 3.5 4.1 5.1 6.3 3.3 4.3 6.7 8.5 9.9 13l4.8 6.6c1.5 2.3 3.1 4.5 4.6 6.8.8 1.1 1.6 2.3 2.3 3.4l2.2 3.5c1.5 2.3 3 4.7 4.4 7 5.7 9.5 11.2 19.2 16.2 29.3 5 10.1 9.7 20.3 14.1 30.8s8.5 21.2 12.5 32c7.9 21.6 15.3 43.7 23.6 65.7 4.2 11 8.5 22 13.4 32.7 4.9 10.8 10.1 21.5 15.8 31.9 5.8 10.4 12 20.5 18.7 30.3 1.7 2.4 3.4 4.8 5.2 7.3l2.6 3.6 2.7 3.5c1.8 2.3 3.6 4.7 5.5 7l5.8 6.9c8 9 16.7 17.2 26.1 24.6 9.4 7.3 19.4 13.8 29.8 19.6l7.8 4.2c2.7 1.3 5.3 2.5 8 3.8l2 .9 2 .9 4.1 1.7 4.1 1.7c1.4.6 2.7 1 4.1 1.5 10.9 4.2 22.1 7.5 33.2 10.4 22.3 5.7 44.9 8.8 67.1 10.6 2.8.2 5.5.4 8.3.5l4.1.3 4.1.2c2.8.1 5.5.2 8.2.3 2.7 0 5.5.1 8.2.1 2.7.1 5.4.1 8.2 0h8.1c2.7-.1 5.4-.1 8.1-.2 1.3 0 2.7-.1 4-.1 1.3-.1 2.7-.1 4-.2 21.3-.9 42.1-2.7 62.3-5.2 40.3-5 77.9-12.6 112.2-20.9 17.2-4.2 33.5-8.6 49-13 7.7-2.2 15.2-4.5 22.5-6.7 4.8-1.5 9.4-3 13.8-4.4 1.8-.6 3.4-1.1 4.7-1.5 2.6-.8 4.1-1.3 4.1-1.3l3.9 12.2z"/></g></g><path class="st3" d="M1129.5 490.9s1.6-1.6 4-3.9 5.6-5.4 8.9-8.4c3.3-3 6.5-5.9 9-8 2.5-2.1 4.1-3.5 4.1-3.5 8.9-7.4 18-14.1 27.5-20.2-5 2.5-10.3 4.7-15.6 6.7-5.3 2-10.8 3.7-16.3 5.2 0 0-8.3 2.3-16.9 3.9-4.3.8-8.6 1.5-11.9 2-3.3.5-5.5.7-5.5.7l5.4 10.9s-1.4.7-3.9 1.8c-1.2.6-2.7 1.3-4.5 2.1-1 .5-2.1 1-3.2 1.4-3.6 1.7-7.3 3.3-11 5-7.5 3.4-15.2 6.8-23.1 10.3-15.9 6.9-32.7 14-50.3 21C991 532 952.4 546.3 911 559.6c-41.4 13.3-85.5 25.7-131.7 35.8-46.2 10.1-94.5 18.2-144 22.2-49.4 4-100.1 4-150-2.5-25-3.2-49.7-8.1-73.9-14.7-24.1-6.7-47.7-15.1-70.2-25.4-11.3-5.1-22.3-10.6-32.8-16.8-2.7-1.5-5.2-3.2-7.8-4.8l-3.9-2.4-3.8-2.5c-2.5-1.7-5.1-3.3-7.6-5.1-2.5-1.8-4.9-3.5-7.4-5.3l-1.8-1.3-1.8-1.4-3.6-2.8c-2.4-1.8-4.8-3.7-7.1-5.6-2.3-1.9-4.6-3.8-7-5.7-2.3-2-4.5-4-6.8-5.9-1.1-1-2.3-2-3.4-3l-3.3-3.1c-2.2-2-4.4-4-6.5-6.1-4.2-4.2-8.5-8.3-12.5-12.6-16.4-17-31.2-35-44.9-53.2-13.6-18.3-25.9-36.9-37.2-55.5-11.2-18.6-21.4-37.1-30.8-55.3-9.3-18.2-17.7-36.1-25.4-53.5-15.3-34.8-27.6-67.4-37.6-96.6-10-29.2-17.8-55-23.7-76.4-6-21.4-10.1-38.3-12.8-49.9-2.4-11.5-3.6-17.8-3.6-17.8l-1.1.2s1.1 6.3 3.7 17.9c2.5 11.6 6.5 28.6 12.2 50.1 5.7 21.5 13.1 47.4 22.8 76.8 9.7 29.4 21.6 62.3 36.6 97.3 7.5 17.5 15.7 35.6 24.9 54s19.2 37.2 30.3 56c11.2 18.8 23.4 37.7 36.9 56.3 13.6 18.5 28.4 36.9 44.9 54.3 4.1 4.4 8.4 8.6 12.6 12.9 2.1 2.1 4.4 4.2 6.6 6.3l3.3 3.1c1.1 1 2.3 2 3.4 3.1 2.3 2 4.6 4.1 6.8 6.1 2.3 2 4.7 3.9 7 5.9 2.3 2 4.8 3.9 7.2 5.8l3.6 2.9 1.8 1.4 1.9 1.4c2.5 1.8 5 3.7 7.5 5.5 2.5 1.8 5.1 3.5 7.7 5.3l3.9 2.6 4 2.5c2.7 1.6 5.3 3.4 8 4.9 10.7 6.4 22 12.2 33.4 17.5 22.8 10.6 46.8 19.4 71.3 26.4 24.5 6.9 49.6 12.1 75 15.6 50.7 7.1 102 7.9 152.1 4.4 50.1-3.5 99.1-11.5 145.7-22 46.6-10.5 91-23.6 132.4-37.6 41.4-14.1 79.9-29.3 114.9-44.4 17.5-7.6 34.1-15.1 49.8-22.6 7.8-3.7 15.5-7.4 22.8-11.1 3.7-1.8 7.3-3.6 10.9-5.4 1.1-.5 2.1-1.1 3.1-1.6 1.7-.9 3.2-1.6 4.4-2.2 2.4-1.2 3.8-2 3.8-2l5.3 10.9z" id="Layer_2"/></svg>