<?xml version="1.0" encoding="utf-8"?>
<!-- Generator: Adobe Illustrator 18.1.1, SVG Export Plug-In . SVG Version: 6.00 Build 0)  -->
<svg version="1.1" xmlns="http://www.w3.org/2000/svg" xmlns:xlink="http://www.w3.org/1999/xlink" x="0px" y="0px" width="646.6px"
	 height="785.8px" viewBox="0 0 646.6 785.8" style="enable-background:new 0 0 646.6 785.8;" xml:space="preserve">
<style type="text/css">
	.st0{display:none;}
	.st1{display:inline;}
	.st2{display:inline;fill:#FBB040;}
	.st3{display:inline;opacity:0.1;}
	.st4{fill:#78909C;}
	.st5{display:inline;opacity:0.35;}
	.st6{fill:#FFF8E1;}
</style>
<g id="Layer_4" class="st0">
	<rect x="0" y="0" class="st1" width="646.6" height="794"/>
</g>
<g id="beer" class="st0">
	<path class="st2" d="M375.6,773.4H121.2c-39.6,0-72-32.4-72-72V147c0-6.6,5.4-12,12-12h374.4c6.6,0,12,5.4,12,12v554.5
		C447.6,741,415.2,773.4,375.6,773.4z"/>
</g>
<g id="glass" class="st0">
	<g class="st3">
		<path class="st4" d="M386.3,785.8h-275c-39.6,0-72-32.4-72-72V147c0-6.6,5.4-12,12-12h395c6.6,0,12,5.4,12,12v566.8
			C458.3,753.4,425.9,785.8,386.3,785.8z"/>
		<path class="st4" d="M592.6,278.6H394.2c-29.7,0-54,24.3-54,54v25.3c0-6.6,5.4-12,12-12h215.7c6.6,0,12,5.4,12,12V639
			c0,6.6-5.4,12-12,12H352.2c-6.6,0-12-5.4-12-12v25.3c0,29.7,24.3,54,54,54h198.3c29.7,0,54-24.3,54-54V332.6
			C646.6,302.9,622.3,278.6,592.6,278.6z"/>
	</g>
	<g class="st1">
		<path class="st4" d="M592.6,278.6h-145v67.3h120.3c6.6,0,12,5.4,12,12V639c0,6.6-5.4,12-12,12H447.6v50.4c0,5.8-0.7,11.5-2,16.9
			h147c29.7,0,54-24.3,54-54V332.6C646.6,302.9,622.3,278.6,592.6,278.6z"/>
		<path class="st4" d="M446.3,135h-10.6c6.6,0,12,5.4,12,12v554.5c0,39.6-32.4,72-72,72H121.2c-39.6,0-72-32.4-72-72V147
			c0-6.6,5.4-12,12-12h-10c-6.6,0-12,5.4-12,12v566.8c0,39.6,32.4,72,72,72h275c39.6,0,72-32.4,72-72V147
			C458.3,140.4,452.9,135,446.3,135z"/>
	</g>
	<g class="st5">
		<path class="st4" d="M122.2,690.8L122.2,690.8c-22.7,0-41.3-18.6-41.3-41.3V251.1c0-22.7,18.6-41.3,41.3-41.3h0
			c22.7,0,41.3,18.6,41.3,41.3v398.4C163.5,672.2,144.9,690.8,122.2,690.8z"/>
		<path class="st4" d="M248.7,718.3L248.7,718.3c-22.7,0-41.3-18.6-41.3-41.3V278.6c0-22.7,18.6-41.3,41.3-41.3h0
			c22.7,0,41.3,18.6,41.3,41.3V677C290,699.7,271.4,718.3,248.7,718.3z"/>
		<path class="st4" d="M370.8,690.8L370.8,690.8c-22.7,0-41.3-18.6-41.3-41.3V251.1c0-22.7,18.6-41.3,41.3-41.3h0
			c22.7,0,41.3,18.6,41.3,41.3v398.4C412,672.2,393.5,690.8,370.8,690.8z"/>
	</g>
</g>
<g id="foam">
	<g>
		<circle class="st6" cx="95.2" cy="132.5" r="87.3"/>
		<circle class="st6" cx="196.2" cy="99.3" r="87.3"/>
		<circle class="st6" cx="243.7" cy="212.4" r="67.5"/>
		<circle class="st6" cx="311.1" cy="77.4" r="67.5"/>
		<circle class="st6" cx="337.3" cy="166.7" r="67.5"/>
		<circle class="st6" cx="253.9" cy="119.1" r="67.5"/>
		<circle class="st6" cx="404.8" cy="107.2" r="87.3"/>
		<circle class="st6" cx="171.3" cy="166.7" r="67.5"/>
	</g>
</g>
</svg>
